<?xml version="1.0" standalone="no"?>
<!DOCTYPE svg PUBLIC "-//W3C//DTD SVG 20010904//EN"
 "http://www.w3.org/TR/2001/REC-SVG-20010904/DTD/svg10.dtd">
<svg version="1.0" xmlns="http://www.w3.org/2000/svg"
 width="200.000000pt" height="200.000000pt" viewBox="0 0 200.000000 200.000000"
 preserveAspectRatio="xMidYMid meet">
<metadata>
Created by potrace 1.14, written by Peter Selinger 2001-2017
</metadata>
<g transform="translate(0.000000,200.000000) scale(0.100000,-0.100000)"
fill="#000000" stroke="none">
<path d="M510 1679 c0 -5 5 -7 10 -4 6 3 10 8 10 11 0 2 -4 4 -10 4 -5 0 -10
-5 -10 -11z"/>
<path d="M524 1655 c-9 -23 -9 -23 -64 -88 -22 -27 -40 -55 -40 -63 0 -17 -16
-19 -23 -1 -3 6 -6 0 -6 -15 -1 -17 -6 -27 -13 -25 -7 1 -12 -6 -12 -15 1 -10
-2 -18 -7 -18 -4 0 -10 21 -12 48 -2 26 -4 -7 -5 -72 -2 -135 14 -187 70 -227
29 -21 29 -21 10 -43 -17 -18 -19 -35 -18 -112 1 -64 6 -97 16 -110 14 -16 13
-17 -3 -11 -10 4 -16 3 -13 -1 3 -5 -11 -23 -29 -41 l-35 -33 0 -154 c0 -140
2 -154 18 -154 29 1 95 35 126 66 53 53 66 96 66 228 0 117 0 119 31 157 43
55 62 63 99 44 56 -29 68 -67 71 -220 1 -49 4 -97 7 -107 6 -26 23 -22 19 5
-2 12 -2 16 0 9 4 -10 8 -11 19 -1 12 10 12 14 2 20 -10 7 -10 9 0 9 6 0 12 7
12 15 0 8 6 15 13 15 7 0 24 15 37 33 13 17 32 38 43 46 10 7 16 19 13 26 -2
7 4 15 14 18 12 3 21 -1 24 -12 3 -9 4 28 3 81 -3 92 -5 99 -37 147 -19 28
-39 51 -44 51 -5 0 -52 -25 -103 -55 -88 -52 -129 -70 -92 -42 9 7 26 28 38
47 18 30 21 50 21 153 l0 118 -38 -41 c-22 -22 -44 -40 -50 -40 -19 0 -81 66
-86 91 -3 13 -7 74 -10 134 -2 61 -9 121 -14 135 -10 24 -10 24 -18 5z m11
-735 c-3 -5 -12 -10 -18 -10 -7 0 -6 4 3 10 19 12 23 12 15 0z m-8 -26 c-3 -3
-12 -4 -19 -1 -8 3 -5 6 6 6 11 1 17 -2 13 -5z"/>
<path d="M1651 1438 c-2 -10 -4 -21 -5 -25 -3 -18 -18 -33 -27 -28 -5 4 -9 2
-9 -3 0 -5 -7 -9 -15 -9 -8 0 -15 5 -15 11 0 6 -10 1 -22 -11 -12 -13 -20 -24
-17 -26 2 -2 29 -21 59 -41 l55 -36 3 45 c3 50 -3 150 -7 123z"/>
<path d="M1256 1321 c-3 -24 -6 -66 -6 -92 0 -50 -7 -58 -28 -37 -9 9 -12 8
-12 -4 0 -11 -6 -15 -20 -11 -12 3 -20 0 -20 -7 0 -10 -3 -10 -14 -1 -8 7 -17
8 -20 3 -3 -4 21 -24 52 -42 157 -93 253 -174 237 -200 -3 -5 -1 -11 5 -15 5
-3 10 -35 10 -71 0 -56 -4 -68 -25 -89 -19 -20 -34 -25 -74 -25 -63 0 -91 30
-91 97 0 24 -7 57 -15 72 -18 37 -89 98 -152 133 l-48 26 4 -151 c2 -84 5
-147 8 -140 6 16 82 -23 90 -46 7 -19 53 -60 68 -61 6 0 19 -11 29 -25 11 -14
26 -23 33 -21 8 3 12 2 9 -3 -3 -5 6 -12 19 -15 17 -4 25 -12 23 -24 -2 -13 4
-17 30 -15 30 1 31 0 15 -12 -17 -13 -16 -14 6 -8 18 5 22 3 16 -7 -6 -9 2
-11 36 -5 153 26 222 96 236 237 l5 64 -36 32 c-20 18 -34 36 -31 41 3 5 1 12
-3 15 -5 3 -6 27 -2 53 5 28 4 56 -2 66 -7 13 -6 28 3 48 11 28 10 32 -23 62
-19 18 -77 57 -129 87 -52 30 -113 73 -135 95 l-42 40 -6 -44z"/>
<path d="M1301 393 c-12 -16 -24 -37 -27 -48 -8 -34 0 -160 11 -160 6 0 12 40
15 90 3 50 9 97 15 105 9 14 16 40 11 40 -1 0 -12 -12 -25 -27z"/>
<path d="M1482 306 c3 -122 19 -161 28 -66 6 62 19 71 71 49 25 -10 71 -69 54
-69 -3 0 -1 -9 5 -20 6 -11 15 -18 21 -15 16 11 10 51 -14 86 -22 33 -23 35
-5 53 21 22 24 56 6 74 -19 19 -25 14 -20 -16 6 -42 -21 -64 -72 -60 -39 3
-41 5 -44 37 -2 19 -10 40 -18 48 -13 13 -14 1 -12 -101z"/>
<path d="M1702 304 l3 -119 75 -3 c79 -2 118 9 90 28 -8 5 -43 10 -77 10 l-63
0 0 34 c0 34 1 35 42 38 59 4 63 28 4 28 l-46 0 0 36 c0 19 -7 42 -15 51 -14
14 -15 3 -13 -103z"/>
<path d="M145 393 c-10 -26 -5 -70 8 -70 6 0 38 -8 70 -17 60 -18 70 -34 43
-68 -8 -12 -30 -18 -72 -20 -44 -2 -59 -7 -59 -18 0 -11 13 -16 50 -18 56 -3
114 25 116 55 5 75 7 73 -74 95 -58 15 -72 29 -58 56 7 14 7 19 -4 19 -8 0
-17 -7 -20 -14z"/>
<path d="M353 403 c-20 -7 -18 -177 2 -197 41 -41 148 -23 160 26 10 41 1 161
-12 166 -10 3 -13 -17 -13 -76 0 -90 -12 -112 -59 -112 -51 0 -60 17 -63 111
-2 63 -6 85 -15 82z"/>
<path d="M835 398 c-10 -25 -1 -208 10 -208 13 0 19 200 6 213 -7 7 -12 5 -16
-5z"/>
<path d="M982 298 l3 -113 27 -3 c15 -2 43 4 62 13 32 15 37 15 58 1 31 -22
85 -21 95 2 11 23 4 212 -8 212 -5 0 -9 -43 -9 -95 l0 -95 -33 0 c-46 0 -57
15 -57 78 0 70 -24 67 -28 -4 -4 -60 -15 -74 -58 -74 l-34 0 0 95 c0 59 -4 95
-10 95 -7 0 -10 -40 -8 -112z"/>
<path d="M1418 368 c-3 -43 -3 -43 -46 -46 -54 -4 -52 -25 4 -32 38 -5 39 -6
44 -53 3 -26 10 -49 15 -50 13 -3 18 81 10 161 -8 71 -22 82 -27 20z"/>
<path d="M555 379 c-9 -37 -1 -189 10 -192 6 -1 12 23 15 53 l5 55 48 3 c61 4
58 25 -4 26 -41 1 -44 3 -47 31 -5 41 -19 54 -27 24z"/>
</g>
</svg>
